Patient4_TMGait_0pt7_02_left_04_EMG.mot
version=1
nRows=13
nColumns=33
inDegrees=no
endheader
time	1LAddLong	2LGlutMax	3LGlutMed	4LIliopsoas	5LSemiMemb	6LBicFemLong	7LRecFem	8LVastMed	9LVastLat	10LGasMed	11LTibAnt	12lTibPost	13LPeroneusLong	14LSol	15LExtDigLong	16LFlexDigLong	17RAddLong	18RGlutMax	19RGlutMed	20RIliopsoas	21RSemiMemb	22RBicFemLong	23RRecFem	24RVastMed	25RVastLat	26RGasMed	27RTibAnt	28RTibPost	29RPeroneusLong	30RSol	31RExtDigLong	32RFlexDigLong
4.16	0.005341	0.21606	-0.024261	0.006409	-0.011292	-0.093842	-0.003052	0.009155	0.11734	-0.045776	0.052643	-0.002899	0.019836	0.018616	-0.37323	-0.23361	0.0354	-0.45349	-0.38605	0.002136	0.000153	-0.16693	0.17075	-0.007172	-0.089874	0.055695	0.13718	0.10147	0.054169	-0.20493	0.000458	-0.001678
4.161	0.00412	0.25314	-0.016632	0.001984	0.002747	-0.048523	-0.03418	0.009003	0.14816	-0.029907	0.06424	0.001068	-0.061798	0.09552	-0.45364	0.20294	0.036163	-0.41184	-0.14999	-0.079803	-0.017853	-0.19134	0.25436	-0.083923	-0.084076	0.12482	0.15182	0.20752	0.37216	0.089417	0.001831	-0.01358
4.162	0.005188	0.33142	-0.02121	0.018005	0.005951	-0.054016	-0.008392	0.005035	0.16113	-0.014343	0.016632	0.001221	-0.059204	0.026398	-0.44617	-0.2124	0.027924	-0.19547	0.43533	-0.14969	-0.013275	-0.14297	0.26779	-0.11505	-0.12268	0.019684	0.14771	0.23025	0.46081	0.59479	0.002136	-0.006409
4.163	-0.001373	0.32135	0.006866	0.020752	0.012817	-0.014343	-0.019989	0.016632	0.19012	0.006409	0.009613	0.00351	-0.041962	-0.08606	0.046997	0.081635	0.016632	-0.12558	0.53848	-0.13901	-0.072784	-0.11261	0.2594	-0.072479	-0.13962	-0.011139	0.16602	0.063934	0.22934	1.0114	-0.000458	-0.005798
4.164	0.001526	0.38589	-0.013885	0.010986	0.011292	0.005188	-0.016022	0.005035	0.21866	0.001831	-0.015411	-0.00412	0.01236	0.044098	0.057983	0.25345	0.017395	-0.18982	0.3804	-0.13733	-0.089569	-0.10132	0.22781	-0.082245	-0.16373	-0.042725	0.24643	0.1239	0.10956	1.3841	-0.002899	-0.001831
4.165	-0.00061	0.4007	-0.029755	-0.022583	-0.003815	0.018463	-0.01236	0.01297	0.23499	0.007782	-0.035553	-0.002899	0.050964	0.11139	0.18295	0.11429	0.014038	-0.30899	-0.47501	-0.16144	-0.024109	0.024872	0.051575	-0.015717	-0.11353	-0.00885	0.30868	0.034943	0.20828	0.84656	0.000763	-0.003662
4.166	0.006866	0.41046	0.006256	-0.013428	-0.012054	0.033264	-0.017395	0.013733	0.26169	0.018158	0.015411	0.000458	0.088654	-0.005188	0.13336	0.027924	0.016174	-0.41153	0.03952	-0.089417	0.078125	0.050964	-0.035248	-0.009308	-0.066833	0.01236	0.17364	-0.045013	0.13382	0.10407	0.001068	0.000153
4.167	0.005341	0.44067	-0.005035	-0.003967	-0.039825	0.020752	-0.011292	0.006714	0.28153	0.014038	0.077667	0.006561	0.079803	-0.12192	0.030518	0.034027	0.014496	-0.40817	0.36484	-0.062866	0.03006	0.089417	-0.29159	-0.02594	0.061035	0.003662	-0.067139	-0.049286	-0.43243	-0.28198	0.001526	0.001221
4.168	0.000763	0.50384	-0.026855	-0.015259	-0.014648	-0.019989	-0.005951	0.012817	0.28641	-0.043793	0.035706	0.000305	-0.010834	-0.29602	0.043793	0.06424	0.0177	-0.4097	0.14099	-0.072021	-0.14603	0.093079	-0.22614	-0.016632	0.1474	0.001221	-0.32166	-0.039368	-0.39993	-0.29175	0.003052	-0.000305
4.169	0.009918	0.52445	-0.026093	-0.001678	0.010071	-0.033875	-0.007324	0.008698	0.29526	-0.070648	-0.023193	0.006409	-0.011139	-0.40131	0.033569	0.049896	0.016174	-0.45746	0.34058	-0.085297	-0.20432	0.081635	-0.16235	-0.012207	0.085449	-0.003815	-0.49316	-0.04303	-0.16129	-0.26184	0.007477	-0.002594
4.17	0.007629	0.51178	-0.022125	-0.001831	0.010681	-0.012207	-0.003052	0.001526	0.29404	-0.085449	-0.000305	0.002899	-0.012665	-0.354	0.060577	0.024414	0.030823	-0.44067	0.36057	-0.050964	-0.103	0.015259	-0.12116	-0.092468	-0.036011	-0.002899	0.26794	-0.046387	-0.055084	-0.2713	0.001984	-0.003204
4.171	0.009613	0.52521	-0.025177	-0.002747	0	-0.018005	0.004425	0.00351	0.30212	-0.038757	0.036316	0.00824	-0.058441	-0.23834	0.064087	-0.27542	0.0354	-0.36407	0.24384	-0.040283	0.1944	-0.06134	-0.024414	-0.15335	-0.088959	0.000916	0.46295	-0.048828	0.072937	-0.42114	0.001526	-0.002289
4.172	0.016479	0.52841	-0.039825	-0.025177	-0.00824	-0.000305	0.006714	0.004272	0.31326	-0.002747	0.034485	0.000305	-0.02655	-0.039063	0.071106	-0.43045	0.010376	-0.33066	0.2124	-0.087891	0.27084	-0.053406	-0.02243	-0.18906	-0.093536	-0.008545	0.2446	-0.04364	0.078583	-0.44006	0.004425	-0.007935
